<?xml version="1.0" encoding="utf-8"?>
<!-- Generator: Adobe Illustrator 21.0.2, SVG Export Plug-In . SVG Version: 6.00 Build 0)  -->
<svg version="1.1" id="Layer_1" xmlns="http://www.w3.org/2000/svg" xmlns:xlink="http://www.w3.org/1999/xlink" x="0px" y="0px"
	 viewBox="0 0 512 512" style="enable-background:new 0 0 512 512;" xml:space="preserve">
<style type="text/css">
	.st0{fill:#FFA300;}
	.st1{fill:url(#SVGID_1_);}
	.st2{fill:url(#SVGID_2_);}
	.st3{fill:url(#SVGID_3_);}
	.st4{fill:url(#SVGID_4_);}
	.st5{fill:url(#SVGID_5_);}
	.st6{fill:url(#SVGID_6_);}
	.st7{fill:url(#SVGID_7_);}
	.st8{fill:url(#SVGID_8_);stroke:url(#SVGID_9_);stroke-width:8;stroke-miterlimit:10;}
	.st9{fill:#AF7714;}
	.st10{fill:url(#SVGID_10_);}
	.st11{fill:url(#SVGID_11_);}
	.st12{fill:url(#SVGID_12_);}
	.st13{fill:#7F5100;}
</style>
<title>Itemku Poin new</title>
<g>
	<g id="Layer_1_1_">
		<polygon class="st0" points="477.7,128 477.7,384 256,512 34.3,384 34.3,128 256,0 		"/>
		
			<linearGradient id="SVGID_1_" gradientUnits="userSpaceOnUse" x1="256.005" y1="424.1" x2="256.005" y2="57.14" gradientTransform="matrix(1 0 0 -1 0 514)">
			<stop  offset="0" style="stop-color:#FFD638"/>
			<stop  offset="1" style="stop-color:#FF861D"/>
		</linearGradient>
		<polygon class="st1" points="454.4,370.5 454.4,141.5 256,26.9 57.6,141.5 57.6,370.5 256,485.1 		"/>
		
			<linearGradient id="SVGID_2_" gradientUnits="userSpaceOnUse" x1="496.3488" y1="613.1809" x2="99.8388" y2="113.5209" gradientTransform="matrix(1 0 0 -1 0 514)">
			<stop  offset="0" style="stop-color:#FFFFFF"/>
			<stop  offset="5.000000e-02" style="stop-color:#F1F2F2;stop-opacity:0"/>
			<stop  offset="0.29" style="stop-color:#FFFFFF"/>
			<stop  offset="0.46" style="stop-color:#F1F2F2;stop-opacity:0"/>
			<stop  offset="0.64" style="stop-color:#F1F2F2"/>
			<stop  offset="1" style="stop-color:#F1F2F2;stop-opacity:0"/>
		</linearGradient>
		<polygon class="st2" points="477.7,128 454.4,141.5 256,26.9 256,0 		"/>
		
			<linearGradient id="SVGID_3_" gradientUnits="userSpaceOnUse" x1="653.9824" y1="488.0981" x2="257.4724" y2="-11.5719" gradientTransform="matrix(1 0 0 -1 0 514)">
			<stop  offset="0" style="stop-color:#FFFFFF"/>
			<stop  offset="5.000000e-02" style="stop-color:#F1F2F2;stop-opacity:0"/>
			<stop  offset="0.29" style="stop-color:#FFFFFF"/>
			<stop  offset="0.46" style="stop-color:#F1F2F2;stop-opacity:0"/>
			<stop  offset="0.64" style="stop-color:#F1F2F2"/>
			<stop  offset="1" style="stop-color:#F1F2F2;stop-opacity:0"/>
		</linearGradient>
		<polygon class="st3" points="477.7,128 477.7,384 454.4,370.5 454.4,141.5 		"/>
		
			<linearGradient id="SVGID_4_" gradientUnits="userSpaceOnUse" x1="676.7712" y1="470.0091" x2="280.2711" y2="-29.6509" gradientTransform="matrix(1 0 0 -1 0 514)">
			<stop  offset="0" style="stop-color:#FFFFFF"/>
			<stop  offset="5.000000e-02" style="stop-color:#F1F2F2;stop-opacity:0"/>
			<stop  offset="0.29" style="stop-color:#FFFFFF"/>
			<stop  offset="0.46" style="stop-color:#F1F2F2;stop-opacity:0"/>
			<stop  offset="0.64" style="stop-color:#F1F2F2"/>
			<stop  offset="1" style="stop-color:#F1F2F2;stop-opacity:0"/>
		</linearGradient>
		<polygon class="st4" points="477.7,384 256,512 256,485.1 454.4,370.5 		"/>
		
			<linearGradient id="SVGID_5_" gradientUnits="userSpaceOnUse" x1="547.2926" y1="572.7579" x2="150.7826" y2="73.0979" gradientTransform="matrix(1 0 0 -1 0 514)">
			<stop  offset="0" style="stop-color:#FFFFFF"/>
			<stop  offset="5.000000e-02" style="stop-color:#F1F2F2;stop-opacity:0"/>
			<stop  offset="0.29" style="stop-color:#FFFFFF"/>
			<stop  offset="0.46" style="stop-color:#F1F2F2;stop-opacity:0"/>
			<stop  offset="0.64" style="stop-color:#F1F2F2"/>
			<stop  offset="1" style="stop-color:#F1F2F2;stop-opacity:0"/>
		</linearGradient>
		<polygon class="st5" points="256,512 256,485.1 57.6,370.5 34.3,384 		"/>
		
			<linearGradient id="SVGID_6_" gradientUnits="userSpaceOnUse" x1="389.6598" y1="697.8502" x2="-6.8502" y2="198.1802" gradientTransform="matrix(1 0 0 -1 0 514)">
			<stop  offset="0" style="stop-color:#FFFFFF"/>
			<stop  offset="5.000000e-02" style="stop-color:#F1F2F2;stop-opacity:0"/>
			<stop  offset="0.29" style="stop-color:#FFFFFF"/>
			<stop  offset="0.46" style="stop-color:#F1F2F2;stop-opacity:0"/>
			<stop  offset="0.64" style="stop-color:#F1F2F2"/>
			<stop  offset="1" style="stop-color:#F1F2F2;stop-opacity:0"/>
		</linearGradient>
		<polygon class="st6" points="57.6,141.5 34.3,128 34.3,384 57.6,370.5 		"/>
		
			<linearGradient id="SVGID_7_" gradientUnits="userSpaceOnUse" x1="366.8679" y1="715.9316" x2="-29.6421" y2="216.2717" gradientTransform="matrix(1 0 0 -1 0 514)">
			<stop  offset="0" style="stop-color:#FFFFFF"/>
			<stop  offset="5.000000e-02" style="stop-color:#F1F2F2;stop-opacity:0"/>
			<stop  offset="0.29" style="stop-color:#FFFFFF"/>
			<stop  offset="0.46" style="stop-color:#F1F2F2;stop-opacity:0"/>
			<stop  offset="0.64" style="stop-color:#F1F2F2"/>
			<stop  offset="1" style="stop-color:#F1F2F2;stop-opacity:0"/>
		</linearGradient>
		<polygon class="st7" points="34.3,128 256,0 256,26.9 57.6,141.5 		"/>
		
			<linearGradient id="SVGID_8_" gradientUnits="userSpaceOnUse" x1="256.01" y1="52.59" x2="256.01" y2="318.81" gradientTransform="matrix(1 0 0 -1 0 514)">
			<stop  offset="0" style="stop-color:#FFFFFF"/>
			<stop  offset="1" style="stop-color:#FFFFFF;stop-opacity:0"/>
		</linearGradient>
		
			<linearGradient id="SVGID_9_" gradientUnits="userSpaceOnUse" x1="256.01" y1="49.1111" x2="256.01" y2="466.8889" gradientTransform="matrix(1 0 0 -1 0 514)">
			<stop  offset="0" style="stop-color:#FFFFFF"/>
			<stop  offset="1" style="stop-color:#FFFFFF;stop-opacity:0"/>
		</linearGradient>
		<polygon class="st8" points="432.9,358.1 432.9,153.9 256,51.7 79.1,153.9 79.1,358.1 256,460.3 		"/>
		<polygon class="st9" points="282.7,240.6 282.7,302.2 229.3,333 229.3,271.4 175.9,302.2 175.9,363.9 229.3,394.7 336.1,333 
			336.1,209.8 		"/>
		
			<linearGradient id="SVGID_10_" gradientUnits="userSpaceOnUse" x1="289.88" y1="117.26" x2="289.88" y2="307.92" gradientTransform="matrix(1 0 0 -1 -33.87 514.24)">
			<stop  offset="0" style="stop-color:#FF7700"/>
			<stop  offset="1" style="stop-color:#FFFFFF;stop-opacity:0"/>
		</linearGradient>
		<path class="st10" d="M336.1,209.8V333l-106.8,61.6l-53.4-30.8v-61.6l53.4-30.8V333l53.4-30.8v-61.6L336.1,209.8 M338.1,206.3
			l-3,1.7l-53.4,30.8l-1,0.6v61.6l-49.4,28.5v-61.6l-3,1.7l-53.4,30.8l-1,0.6V365l1,0.6l53.4,30.8l1,0.6l1-0.6l106.8-61.6l1-0.6
			V206.3z"/>
		<polygon class="st9" points="229.3,179.5 175.9,210.3 175.9,272 229.3,241.1 		"/>
		
			<linearGradient id="SVGID_11_" gradientUnits="userSpaceOnUse" x1="236.465" y1="238.82" x2="236.465" y2="338.19" gradientTransform="matrix(1 0 0 -1 -33.87 514.24)">
			<stop  offset="0" style="stop-color:#FF7700"/>
			<stop  offset="1" style="stop-color:#FFFFFF;stop-opacity:0"/>
		</linearGradient>
		<path class="st11" d="M229.3,179.5v61.6L175.9,272v-61.6L229.3,179.5 M231.3,176l-3,1.7l-53.4,30.8l-1,0.6v66.3l3-1.7l53.4-30.8
			l1-0.6V176L231.3,176z"/>
		<polygon class="st9" points="336.1,117.3 282.7,148.1 282.7,209.8 336.1,179 		"/>
		
			<linearGradient id="SVGID_12_" gradientUnits="userSpaceOnUse" x1="343.295" y1="301" x2="343.295" y2="400.37" gradientTransform="matrix(1 0 0 -1 -33.87 514.24)">
			<stop  offset="0" style="stop-color:#FF7700"/>
			<stop  offset="1" style="stop-color:#FFFFFF;stop-opacity:0"/>
		</linearGradient>
		<path class="st12" d="M336.1,117.3V179l-53.4,30.8v-61.6L336.1,117.3 M338.1,113.9l-3,1.7l-53.4,30.8l-1,0.6v66.2l3-1.7l53.4-30.8
			l1-0.6C338.1,180.1,338.1,113.9,338.1,113.9z"/>
		<polygon class="st13" points="291.7,249.6 336.1,223.9 336.1,209.8 282.7,240.6 282.7,302.2 291.7,307.4 		"/>
		<polygon class="st13" points="291.7,157.1 336.1,131.4 336.1,117.3 282.7,148.1 282.7,209.8 291.7,204.6 		"/>
		<polygon class="st13" points="184.8,311.2 229.3,285.5 229.3,271.4 175.9,302.2 175.9,363.9 184.8,369 		"/>
		<polygon class="st13" points="184.8,219.3 229.3,193.6 229.3,179.5 175.9,210.3 175.9,272 184.8,266.8 		"/>
		<polygon class="st13" points="291.7,307.4 241.3,336.5 229.3,333 282.7,302.2 		"/>
	</g>
</g>
</svg>
