<svg id="Layer_1" data-name="Layer 1" xmlns="http://www.w3.org/2000/svg" viewBox="0 0 300 110"><defs><style>.cls-1{fill:#307fe2;}.cls-2{fill:#41b6e6;}.cls-3{fill:#fa0;}</style></defs><title>logo-desktop</title><polygon class="cls-1" points="272.67 50 272.67 70 255.33 80 255.33 60 238 70 238 90 255.33 100 290 80 290 40 272.67 50"/><polygon class="cls-2" points="255.33 80 272.67 70 290 80 255.33 100 255.33 80"/><polygon class="cls-3" points="255.33 30.18 238 40.18 238 60.18 255.33 50.18 255.33 30.18"/><polygon class="cls-3" points="290 10 272.67 20 272.67 40 290 30 290 10"/><path class="cls-1" d="M84,76.82A21.64,21.64,0,0,1,68.62,83a20.37,20.37,0,0,1-14.56-5.43Q48.3,72.14,48.3,63t5.86-14.53A19.77,19.77,0,0,1,68,43.08,20,20,0,0,1,81.56,47.9q5.57,4.82,5.57,13.23v5.75H58.94a7.69,7.69,0,0,0,3.31,5.18,10.59,10.59,0,0,0,6.33,2,12.41,12.41,0,0,0,9.35-3.81ZM73.62,53.87A8.17,8.17,0,0,0,68.19,52a9.71,9.71,0,0,0-5.86,1.94,7.43,7.43,0,0,0-3.09,5.25h17A7.66,7.66,0,0,0,73.62,53.87Z"/><path class="cls-1" d="M125.24,61.57V83H114.38V61.28q0-4.6-1.4-6.76a5,5,0,0,0-4.53-2.16,7.73,7.73,0,0,0-5.54,2.34q-2.41,2.34-2.41,6.87V83H89.71V43.73h10.79v4.39q4.46-5,10.21-5a11.09,11.09,0,0,1,6.65,2.16,14.05,14.05,0,0,1,4.5,5.25,15.19,15.19,0,0,1,6-5.47,16.45,16.45,0,0,1,7.59-1.94q6.83,0,11,4.06t4.17,11.76V83H139.76V61.28q0-8.92-6.54-8.92a7.73,7.73,0,0,0-5.61,2.34Q125.24,57,125.24,61.57Z"/><path class="cls-1" d="M212.47,43.73V64.59q0,4.46-2.37,6.8a7.73,7.73,0,0,1-5.61,2.34q-6.54,0-6.54-8.92V43.73H175.89L164,56.46V27l-10.79,6.26V83H164V71.28l3.52-3.67L177.74,83h12.8l-15.7-23.66,12.25-13V67.18q0,7.84,4.32,11.83a15.14,15.14,0,0,0,10.68,4q6.36,0,10.39-5.68V83h10.87V43.73Z"/><path class="cls-1" d="M10,33.43V38h0v5.36l11.22-6.48c0-2.13,0-2.45,0-4.57h0V27Z"/><path class="cls-1" d="M47.26,71.87A6.19,6.19,0,0,1,45,73.26a5.94,5.94,0,0,1-1.94.32,3.58,3.58,0,0,1-2.73-1.26,5,5,0,0,1-1.15-3.49V51.5h9.35V43.73H39.18V32.93L28.32,39.2v4.53H23.79V51.5h4.53V69.33q0,6.33,3.85,10a13.16,13.16,0,0,0,3.48,2.41A13.9,13.9,0,0,0,41.59,83a15.57,15.57,0,0,0,10.13-4.16A20,20,0,0,1,47.26,71.87Z"/><polygon class="cls-1" points="10 49.76 10 83 21.22 83 21.22 43.28 10 49.76"/></svg>